<svg width="40" height="32" viewBox="0 0 40 32" fill="none" xmlns="http://www.w3.org/2000/svg">
<path d="M24.6665 17.6665H34V14.3335H24.6665V17.6665ZM24.6665 11.6665H34V8.3335H24.6665V11.6665ZM6 24H22V23C22 21.5667 21.2833 20.4083 19.85 19.525C18.4167 18.6417 16.4667 18.2 14 18.2C11.5333 18.2 9.58333 18.6417 8.15 19.525C6.71667 20.4083 6 21.5667 6 23V24ZM13.9975 15.5335C15.0325 15.5335 15.9195 15.1648 16.6585 14.4275C17.3972 13.6905 17.7665 12.8045 17.7665 11.7695C17.7665 10.7342 17.398 9.84717 16.661 9.1085C15.924 8.3695 15.0378 8 14.0025 8C12.9675 8 12.0805 8.3685 11.3415 9.1055C10.6028 9.84283 10.2335 10.729 10.2335 11.764C10.2335 12.799 10.602 13.686 11.339 14.425C12.076 15.164 12.9622 15.5335 13.9975 15.5335ZM3.3335 32C2.4335 32 1.65283 31.6695 0.9915 31.0085C0.3305 30.3472 0 29.5665 0 28.6665V3.3335C0 2.4335 0.3305 1.65283 0.9915 0.991501C1.65283 0.330501 2.4335 0 3.3335 0H36.6665C37.5665 0 38.3472 0.330501 39.0085 0.991501C39.6695 1.65283 40 2.4335 40 3.3335V28.6665C40 29.5665 39.6695 30.3472 39.0085 31.0085C38.3472 31.6695 37.5665 32 36.6665 32H3.3335ZM3.3335 28.6665H36.6665V3.3335H3.3335V28.6665Z" fill="#C84C0E"/>
</svg>
