<svg width="48" height="48" viewBox="0 0 48 48" fill="none" xmlns="http://www.w3.org/2000/svg">
<g clip-path="url(#clip0_10758_76173)">
<path fill-rule="evenodd" clip-rule="evenodd" d="M38 40H28H20H10V24H4L24 6L44 24H38V40ZM27.5057 26.122V27.8508C28.4107 27.872 29.1382 28.6107 29.1382 29.5207V33.4559C29.1382 34.3793 28.3896 35.1279 27.4662 35.1279H20.5338C19.6104 35.1279 18.8618 34.3793 18.8618 33.4559V29.5207C18.8618 28.6107 19.5893 27.872 20.4943 27.8508V26.122C20.4943 24.4005 21.8948 23 23.6164 23H24.3838C26.1053 23 27.5057 24.4005 27.5057 26.122ZM24.3838 24.2845H23.6164C22.6031 24.2845 21.7788 25.1088 21.7788 26.122V27.8488H26.2212V26.122C26.2212 25.1088 25.3969 24.2845 24.3838 24.2845Z" fill="#F47738"/>
</g>
<defs>
<clipPath id="clip0_10758_76173">
<rect width="48" height="48" fill="white"/>
</clipPath>
</defs>
</svg>
