<svg width="253" height="183" viewBox="0 0 253 183" fill="none" xmlns="http://www.w3.org/2000/svg">
<g clip-path="url(#clip0_70046_105678)">
<path d="M217.376 181.818C225.297 179.441 233.719 176.964 240.001 171.315C245.615 166.268 249.405 158.561 247.079 150.991C244.758 143.437 237.807 138.4 230.629 135.895C226.558 134.474 222.3 133.685 218.042 133.066C213.415 132.393 208.766 131.841 204.12 131.311C185.307 129.162 166.424 127.849 147.469 127.372C138.117 127.137 128.766 127.143 119.412 127.278C111.058 127.399 102.26 127.396 94.5101 123.85C88.4837 121.093 83.014 116.076 81.3348 109.483C79.3965 101.873 82.9718 94.1228 88.1005 88.6112C90.8039 85.706 93.9635 83.2608 97.2228 81.0124C100.759 78.5732 104.418 76.3068 108.157 74.1911C115.52 70.0263 123.218 66.4819 131.17 63.5945C135.094 62.1698 139.075 60.9406 143.091 59.8066C146.482 58.849 149.884 57.8901 153.162 56.5855C159.497 54.0635 165.524 49.7914 167.135 42.7877C168.661 36.1499 166.087 28.944 161.574 24.0129C156.353 18.308 148.48 15.8071 140.932 15.4025C132.459 14.9482 124.18 17.0663 116.216 19.7544C107.721 22.6215 99.4099 25.9181 90.7359 28.2404C82.1344 30.541 73.3665 32.1688 64.5117 33.109C60.1771 33.57 55.7114 34.0905 51.3509 33.7376C47.6964 33.4418 44.0606 32.3684 41.3674 29.778C39.058 27.5569 37.6823 24.5044 38.1553 21.2831C38.2412 20.698 39.1311 20.9467 39.0457 21.5283C38.47 25.4495 41.1388 29.0629 44.4275 30.9138C48.2284 33.053 52.8536 33.0559 57.0852 32.8113C66.2607 32.2578 75.3741 30.942 84.3309 28.8775C93.132 26.8698 101.619 23.9998 110.096 20.9339C118.147 18.0221 126.378 15.1801 134.979 14.5494C142.443 14.0022 150.293 15.0881 156.795 18.9835C162.509 22.407 166.711 28.1163 168.05 34.6679C169.358 41.07 167.546 47.5138 162.694 51.9814C157.67 56.607 150.782 58.5846 144.362 60.406C136.22 62.7162 128.252 65.4165 120.54 68.9227C112.723 72.4667 105.225 76.6764 98.1312 81.5051C91.2836 86.1788 84.5258 92.0593 82.3601 100.397C81.3512 104.281 81.5375 108.4 83.2255 112.068C84.7264 115.33 87.1983 118.074 90.0779 120.19C96.9484 125.239 105.608 126.276 113.907 126.379C123.228 126.495 132.549 126.181 141.873 126.334C160.875 126.645 179.838 127.8 198.762 129.799C203.504 130.301 208.24 130.855 212.97 131.462C217.224 132.008 221.493 132.55 225.676 133.52C233.113 135.244 240.35 138.559 244.973 144.857C247.025 147.587 248.296 150.822 248.65 154.217C248.974 157.76 248.106 161.309 246.502 164.461C242.952 171.436 236.303 175.873 229.242 178.788C225.46 180.35 221.537 181.532 217.622 182.707C217.051 182.878 216.807 181.988 217.376 181.818Z" fill="#E9E7E7"/>
<path d="M38.7546 28.7448C42.8346 28.7448 46.1421 25.4415 46.1421 21.3666C46.1421 17.2916 42.8346 13.9883 38.7546 13.9883C34.6747 13.9883 31.3672 17.2916 31.3672 21.3666C31.3672 25.4415 34.6747 28.7448 38.7546 28.7448Z" fill="#E9E7E7"/>
<path d="M90.0046 42.7321C94.0846 42.7321 97.3921 39.4288 97.3921 35.3539C97.3921 31.2789 94.0846 27.9756 90.0046 27.9756C85.9247 27.9756 82.6172 31.2789 82.6172 35.3539C82.6172 39.4288 85.9247 42.7321 90.0046 42.7321Z" fill="#E9E7E7"/>
<path d="M133.403 14.7565C137.483 14.7565 140.791 11.4532 140.791 7.37827C140.791 3.30336 137.483 0 133.403 0C129.323 0 126.016 3.30336 126.016 7.37827C126.016 11.4532 129.323 14.7565 133.403 14.7565Z" fill="#E9E7E7"/>
<path d="M160.489 46.114C164.569 46.114 167.876 42.8106 167.876 38.7357C167.876 34.6608 164.569 31.3574 160.489 31.3574C156.409 31.3574 153.102 34.6608 153.102 38.7357C153.102 42.8106 156.409 46.114 160.489 46.114Z" fill="#E9E7E7"/>
<path d="M123.864 82.3903C127.944 82.3903 131.251 79.087 131.251 75.0121C131.251 70.9372 127.944 67.6338 123.864 67.6338C119.784 67.6338 116.477 70.9372 116.477 75.0121C116.477 79.087 119.784 82.3903 123.864 82.3903Z" fill="#E9E7E7"/>
<path d="M77.3796 99.9138C81.4596 99.9138 84.7671 96.6104 84.7671 92.5355C84.7671 88.4606 81.4596 85.1572 77.3796 85.1572C73.2997 85.1572 69.9922 88.4606 69.9922 92.5355C69.9922 96.6104 73.2997 99.9138 77.3796 99.9138Z" fill="#E9E7E7"/>
<path d="M126.63 127.275C130.71 127.275 134.017 123.972 134.017 119.897C134.017 115.822 130.71 112.519 126.63 112.519C122.55 112.519 119.242 115.822 119.242 119.897C119.242 123.972 122.55 127.275 126.63 127.275Z" fill="#E9E7E7"/>
<path d="M179.575 142.646C183.655 142.646 186.962 139.343 186.962 135.268C186.962 131.193 183.655 127.89 179.575 127.89C175.495 127.89 172.188 131.193 172.188 135.268C172.188 139.343 175.495 142.646 179.575 142.646Z" fill="#F2F2F2"/>
<path d="M241.442 139.264C245.522 139.264 248.83 135.961 248.83 131.886C248.83 127.811 245.522 124.508 241.442 124.508C237.362 124.508 234.055 127.811 234.055 131.886C234.055 135.961 237.362 139.264 241.442 139.264Z" fill="#E9E7E7"/>
<path d="M259.632 183H0.365445C0.268426 182.999 0.175478 182.961 0.106975 182.892C0.0384709 182.823 0 182.731 0 182.634C0 182.537 0.0384709 182.444 0.106975 182.375C0.175478 182.307 0.268426 182.268 0.365445 182.268H259.632C259.73 182.268 259.823 182.306 259.892 182.375C259.96 182.443 259.999 182.537 259.999 182.634C259.999 182.731 259.96 182.824 259.892 182.892C259.823 182.961 259.73 183 259.632 183Z" fill="#3F3D56"/>
<path d="M155.917 182.433L106.834 182.45C104.368 182.451 102.159 181.179 100.926 179.046C100.309 177.98 100 176.81 100 175.64C99.9996 174.47 100.307 173.3 100.923 172.234L125.449 127.642C126.681 125.508 128.889 124.234 131.355 124.233C133.821 124.233 136.03 125.505 137.263 127.638L161.823 172.218C162.438 173.282 162.746 174.45 162.746 175.619C162.746 176.789 162.439 177.958 161.822 179.025C160.59 181.158 158.382 182.433 155.917 182.433ZM100.617 175.639C100.617 176.704 106.033 174.41 106.594 175.38C107.716 177.32 104.59 181.836 106.834 181.836C106.834 181.836 160.168 180.659 161.289 178.718C161.85 177.748 162.13 176.683 162.129 175.619C162.129 174.554 161.848 173.49 161.287 172.52L136.727 127.94C135.608 126.005 133.599 124.847 131.355 124.848C129.113 124.849 100.617 174.574 100.617 175.639Z" fill="#3F3D56"/>
<path d="M145.673 172.599C158.083 172.599 168.143 162.552 168.143 150.157C168.143 137.763 158.083 127.715 145.673 127.715C133.263 127.715 123.203 137.763 123.203 150.157C123.203 162.552 133.263 172.599 145.673 172.599Z" fill="#D4351C"/>
<path d="M145.68 163.914C146.82 163.914 147.743 162.992 147.743 161.854C147.743 160.716 146.82 159.793 145.68 159.793C144.541 159.793 143.617 160.716 143.617 161.854C143.617 162.992 144.541 163.914 145.68 163.914Z" fill="white"/>
<path d="M145.67 136.399C145.481 137.657 145.82 137.92 145.822 143.343C145.824 148.765 146.95 156.035 145.677 156.036C144.404 156.036 143.938 141.032 139.516 139.704C134.316 138.143 146.284 132.328 145.67 136.399Z" fill="white"/>
<path d="M-3 130.157C-3 130.157 15.7858 124.98 16.9419 141.662C18.0979 158.344 1.47969 163.09 14.4852 166.397" stroke="#E9E7E7" stroke-width="2" stroke-miterlimit="10"/>
<path d="M59 167.397C79.4345 167.397 96 150.832 96 130.397C96 109.963 79.4345 93.3975 59 93.3975C38.5655 93.3975 22 109.963 22 130.397C22 150.832 38.5655 167.397 59 167.397Z" fill="#0B4B66"/>
<path d="M54 159.397H42V180.397H54V159.397Z" fill="#0B4B66"/>
<path d="M76 159.397H65V180.397H76V159.397Z" fill="#0B4B66"/>
<path d="M51.5 183.397C56.7467 183.397 61 181.83 61 179.897C61 177.964 56.7467 176.397 51.5 176.397C46.2533 176.397 42 177.964 42 179.897C42 181.83 46.2533 183.397 51.5 183.397Z" fill="#0B4B66"/>
<path d="M74.5 183.397C79.7467 183.397 84 181.83 84 179.897C84 177.964 79.7467 176.397 74.5 176.397C69.2533 176.397 65 177.964 65 179.897C65 181.83 69.2533 183.397 74.5 183.397Z" fill="#0B4B66"/>
<path d="M60 134.397C67.1797 134.397 73 128.577 73 121.397C73 114.218 67.1797 108.397 60 108.397C52.8203 108.397 47 114.218 47 121.397C47 128.577 52.8203 134.397 60 134.397Z" fill="white"/>
<path d="M60 125.397C62.2091 125.397 64 123.607 64 121.397C64 119.188 62.2091 117.397 60 117.397C57.7909 117.397 56 119.188 56 121.397C56 123.607 57.7909 125.397 60 125.397Z" fill="#3F3D56"/>
<path d="M33.3609 96.3602C31.3898 87.5521 37.6906 78.652 47.4342 76.4811C57.1778 74.3102 66.6745 79.6907 68.6456 88.4988C70.6167 97.3069 64.1593 100.555 54.4157 102.726C44.6721 104.897 35.332 105.168 33.3609 96.3602Z" fill="#E4E4E4"/>
<path d="M93.9652 123.404C103.374 119.378 109.976 113.72 108.712 110.767C107.448 107.814 98.7958 108.684 89.3873 112.71C79.9787 116.736 73.3764 122.394 74.6405 125.347C75.9047 128.3 84.5567 127.43 93.9652 123.404Z" fill="#0B4B66"/>
<path d="M24.5356 148.263C33.9441 144.237 40.5465 138.58 39.2823 135.627C38.0181 132.674 29.3662 133.544 19.9576 137.57C10.549 141.596 3.94669 147.253 5.21086 150.206C6.47503 153.159 15.127 152.289 24.5356 148.263Z" fill="#0B4B66"/>
<path d="M48 148.759C48 147.563 54.7923 143 62.3294 143C69.8665 143 77 147.409 77 148.605C77 149.801 69.8665 146.303 62.3294 146.303C54.7923 146.303 48 149.955 48 148.759Z" fill="white"/>
</g>
<defs>
<clipPath id="clip0_70046_105678">
<rect width="253" height="183" fill="white"/>
</clipPath>
</defs>
</svg>
