<svg width="26" height="26" viewBox="0 0 26 26" fill="none" xmlns="http://www.w3.org/2000/svg">
<path d="M10.6667 11.3332C11.4 11.3332 12.0278 11.0721 12.55 10.5498C13.0722 10.0276 13.3333 9.39984 13.3333 8.6665C13.3333 7.93317 13.0722 7.30539 12.55 6.78317C12.0278 6.26095 11.4 5.99984 10.6667 5.99984C9.93333 5.99984 9.30556 6.26095 8.78333 6.78317C8.26111 7.30539 8 7.93317 8 8.6665C8 9.39984 8.26111 10.0276 8.78333 10.5498C9.30556 11.0721 9.93333 11.3332 10.6667 11.3332ZM10.6667 16.6665C11.6667 16.6665 12.6056 16.4554 13.4833 16.0332C14.3611 15.6109 15.1222 15.0109 15.7667 14.2332C14.9889 13.7221 14.1722 13.3332 13.3167 13.0665C12.4611 12.7998 11.5778 12.6665 10.6667 12.6665C9.75556 12.6665 8.87222 12.7998 8.01667 13.0665C7.16111 13.3332 6.34444 13.7221 5.56667 14.2332C6.21111 15.0109 6.97222 15.6109 7.85 16.0332C8.72778 16.4554 9.66667 16.6665 10.6667 16.6665ZM23.4667 25.9998L17.2 19.7332C16.2889 20.4443 15.2833 20.9998 14.1833 21.3998C13.0833 21.7998 11.9111 21.9998 10.6667 21.9998C7.68889 21.9998 5.16667 20.9665 3.1 18.8998C1.03333 16.8332 0 14.3109 0 11.3332C0 8.35539 1.03333 5.83317 3.1 3.7665C5.16667 1.69984 7.68889 0.666504 10.6667 0.666504C13.6444 0.666504 16.1667 1.69984 18.2333 3.7665C20.3 5.83317 21.3333 8.35539 21.3333 11.3332C21.3333 12.5776 21.1333 13.7498 20.7333 14.8498C20.3333 15.9498 19.7778 16.9554 19.0667 17.8665L25.3333 24.1332L23.4667 25.9998ZM10.6667 19.3332C12.8889 19.3332 14.7778 18.5554 16.3333 16.9998C17.8889 15.4443 18.6667 13.5554 18.6667 11.3332C18.6667 9.11095 17.8889 7.22206 16.3333 5.6665C14.7778 4.11095 12.8889 3.33317 10.6667 3.33317C8.44444 3.33317 6.55556 4.11095 5 5.6665C3.44444 7.22206 2.66667 9.11095 2.66667 11.3332C2.66667 13.5554 3.44444 15.4443 5 16.9998C6.55556 18.5554 8.44444 19.3332 10.6667 19.3332Z" fill="#C84C0E"/>
</svg>
